<svg xmlns="http://www.w3.org/2000/svg" version="1.1" xmlns:xlink="http://www.w3.org/1999/xlink" width="512" height="512" x="0" y="0" viewBox="0 0 24 24" style="enable-background:new 0 0 512 512" xml:space="preserve" class=""><g transform="matrix(-1,1.224646799147353e-16,1.224646799147353e-16,1,24,-3.552713678800501e-15)"><path d="M12.432 7.57a4.124 4.124 0 0 1 1.344 3.041c0 2.298-1.903 4.167-4.243 4.167-.37 0-.738-.048-1.092-.14a4.575 4.575 0 0 0 3.638 1.806c2.496 0 4.526-1.993 4.526-4.444 0-2.334-1.842-4.254-4.173-4.43z" fill="#000000"></path><path d="M12 2C6.477 2 2 6.477 2 12s4.477 10 10 10 10-4.477 10-10S17.523 2 12 2zm.079 15.556c-2.5 0-4.733-1.647-5.43-4.004a.551.551 0 0 1 .232-.62.576.576 0 0 1 .67.036c.557.45 1.26.699 1.982.699 1.716 0 3.112-1.371 3.112-3.056 0-1.313-.853-2.476-2.122-2.894a.556.556 0 0 1-.386-.541.557.557 0 0 1 .413-.521 5.78 5.78 0 0 1 1.529-.21c3.12 0 5.658 2.492 5.658 5.555 0 3.063-2.539 5.556-5.658 5.556z" fill="#000000"></path></g></svg>